name C:\Users\u0101727\Documents\MyRepositories\upper-imu-dc\Results\main_tracking\Case_47\kinematics.mot
datacolumns 10
datarows 52
range 3.75000000 4.26000000
endheader 
time	clav_prot	clav_elev	scapula_abduction	scapula_elevation	scapula_upward_rot	scapula_winging	plane_elv	shoulder_elv	axial_rot	
          3.75000000	        -47.20641874	          9.98812584	         -3.67733394	         -1.16208712	         84.70591841	        -13.84963102	         33.52897680	         87.51387791	        -11.86141457	
          3.76000000	        -47.11761314	         10.01548809	         -3.58427354	         -1.14434959	         84.64214369	        -13.80388287	         33.62208224	         87.47204000	        -11.83723753	
          3.77000000	        -47.02738179	         10.04403020	         -3.49404080	         -1.12649679	         84.57176584	        -13.75871312	         33.72622597	         87.43191311	        -11.81277309	
          3.78000000	        -46.93613815	         10.07333632	         -3.40696319	         -1.10879191	         84.49514208	        -13.71425120	         33.84080262	         87.39319171	        -11.78923401	
          3.79000000	        -46.84430753	         10.10299985	         -3.32336922	         -1.09148939	         84.41265903	        -13.67063030	         33.96520476	         87.35551644	        -11.76753948	
          3.80000000	        -46.75230403	         10.13263810	         -3.24355354	         -1.07482319	         84.32473250	        -13.62797447	         34.09879651	         87.31850269	        -11.74829914	
          3.81000000	        -46.66050820	         10.16190063	         -3.16774319	         -1.05899979	         84.23180498	        -13.58638525	         34.24089152	         87.28176813	        -11.73181987	
          3.82000000	        -46.56924921	         10.19047236	         -3.09607203	         -1.04419542	         84.13434039	        -13.54593100	         34.39074055	         87.24495607	        -11.71812795	
          3.83000000	        -46.47879407	         10.21807454	         -3.02856830	         -1.03055548	         84.03281616	        -13.50664130	         34.54753086	         87.20775244	        -11.70700038	
          3.84000000	        -46.38934452	         10.24446687	         -2.96515671	         -1.01819422	         83.92771357	        -13.46850749	         34.71039633	         87.16989604	        -11.69800052	
          3.85000000	        -46.30104022	         10.26945207	         -2.90567263	         -1.00719322	         83.81950729	        -13.43148845	         34.87843529	         87.13118292	        -11.69051575	
          3.86000000	        -46.21396663	         10.29288227	         -2.84988468	         -0.99759911	         83.70865469	        -13.39551993	         35.05073298	         87.09146637	        -11.68379530	
          3.87000000	        -46.12816539	         10.31466460	         -2.79752167	         -0.98942200	         83.59558526	        -13.36052537	         35.22638631	         87.05065411	        -11.67698744	
          3.88000000	        -46.04364644	         10.33476323	         -2.74830157	         -0.98263638	         83.48068996	        -13.32642686	         35.40452959	         87.00870357	        -11.66917540	
          3.89000000	        -45.96040122	         10.35319631	         -2.70196108	         -0.97718548	         83.36431067	        -13.29315551	         35.58436024	         86.96561544	        -11.65941155	
          3.90000000	        -45.87841663	         10.37002794	         -2.65828469	         -0.97298892	         83.24673049	        -13.26066082	         35.76516321	         86.92142514	        -11.64674890	
          3.91000000	        -45.79768867	         10.38535677	         -2.61713033	         -0.96995228	         83.12816665	        -13.22891847	         35.94633196	         86.87619167	        -11.63026936	
          3.92000000	        -45.71823395	         10.39930374	         -2.57844793	         -0.96797641	         83.00876783	        -13.19793548	         36.12738319	         86.82998440	        -11.60910920	
          3.93000000	        -45.64009665	         10.41200066	         -2.54228671	         -0.96696528	         82.88861667	        -13.16775155	         36.30796326	         86.78286927	        -11.58248437	
          3.94000000	        -45.56334899	         10.42358128	         -2.50878801	         -0.96683093	         82.76773735	        -13.13843544	         36.48784417	         86.73489693	        -11.54972044	
          3.95000000	        -45.48808326	         10.43417570	         -2.47816230	         -0.96749502	         82.64610680	        -13.11007603	         36.66690800	         86.68609475	        -11.51029190	
          3.96000000	        -45.41439662	         10.44390447	         -2.45065147	         -0.96888988	         82.52366864	        -13.08276786	         36.84512298	         86.63646309	        -11.46387230	
          3.97000000	        -45.34236929	         10.45287512	         -2.42648021	         -0.97095708	         82.40034762	        -13.05659299	         37.02251187	         86.58597520	        -11.41038848	
          3.98000000	        -45.27203944	         10.46117593	         -2.40580219	         -0.97364804	         82.27606245	        -13.03160061	         37.19912130	         86.53458042	        -11.35006737	
          3.99000000	        -45.20337644	         10.46887249	         -2.38864523	         -0.97692272	         82.15073716	        -13.00778659	         37.37499172	         86.48220820	        -11.28346279	
          4.00000000	        -45.13625520	         10.47600440	         -2.37486012	         -0.98074871	         82.02430997	        -12.98507469	         37.55013404	         86.42877321	        -11.21145442	
          4.01000000	        -45.07043286	         10.48258735	         -2.36407753	         -0.98509722	         81.89673878	        -12.96330132	         37.72451224	         86.37418188	        -11.13521694	
          4.02000000	        -45.00553075	         10.48861910	         -2.35567739	         -0.98993745	         81.76800310	        -12.94220556	         37.89803465	         86.31833987	        -11.05616404	
          4.03000000	        -44.94102438	         10.49408770	         -2.34877573	         -0.99523049	         81.63810198	        -12.92142591	         38.07055531	         86.26115997	        -10.97587653	
          4.04000000	        -44.87624417	         10.49897959	         -2.34223291	         -1.00092477	         81.50704748	        -12.90050498	         38.24188637	         86.20256963	        -10.89602478	
          4.05000000	        -44.81038875	         10.50328422	         -2.33468544	         -1.00695529	         81.37485383	        -12.87890246	         38.41182205	         86.14251685	        -10.81829240	
          4.06000000	        -44.74255085	         10.50699408	         -2.32460088	         -1.01324746	         81.24152295	        -12.85601600	         38.58017288	         86.08097343	        -10.74430453	
          4.07000000	        -44.67175430	         10.51010114	         -2.31035208	         -1.01972438	         81.10702732	        -12.83120884	         38.74680647	         86.01793475	        -10.67556098	
          4.08000000	        -44.59699864	         10.51259277	         -2.29030526	         -1.02631525	         80.97129173	        -12.80384232	         38.91169018	         85.95341659	        -10.61337372	
          4.09000000	        -44.51730735	         10.51444977	         -2.26291463	         -1.03296247	         80.83417513	        -12.77331092	         39.07493063	         85.88745006	        -10.55880899	
          4.10000000	        -44.43177550	         10.51564798	         -2.22681556	         -1.03962609	         80.69545432	        -12.73907695	         39.23680563	         85.82007663	        -10.51263588	
          4.11000000	        -44.33961328	         10.51616296	         -2.18090918	         -1.04628524	         80.55481107	        -12.70070212	         39.39778582	         85.75134510	        -10.47528464	
          4.12000000	        -44.24018300	         10.51597627	         -2.12443300	         -1.05293758	         80.41182408	        -12.65787376	         39.55854523	         85.68131179	        -10.44681833	
          4.13000000	        -44.13302814	         10.51508163	         -2.05701368	         -1.05959730	         80.26596711	        -12.61042410	         39.71996102	         85.61004401	        -10.42692132	
          4.14000000	        -44.01789344	         10.51349006	         -1.97869904	         -1.06629239	         80.11661443	        -12.55834147	         39.88310252	         85.53762608	        -10.41490776	
          4.15000000	        -43.89473505	         10.51123344	         -1.88996716	         -1.07306122	         79.96305445	        -12.50177270	         40.04920909	         85.46416629	        -10.40975232	
          4.16000000	        -43.76372051	         10.50836578	         -1.79171135	         -1.07994914	         79.80451144	        -12.44101644	         40.21965664	         85.38980309	        -10.41014244	
          4.17000000	        -43.62521851	         10.50496123	         -1.68520195	         -1.08700561	         79.64017438	        -12.37650762	         40.39591330	         85.31470909	        -10.41454770	
          4.18000000	        -43.47977942	         10.50110886	         -1.57202712	         -1.09428244	         79.46923108	        -12.30879427	         40.57948569	         85.23909165	        -10.42129964	
          4.19000000	        -43.32810781	         10.49690520	         -1.45401685	         -1.10183247	         79.29090556	        -12.23850848	         40.77185831	         85.16318910	        -10.42867492	
          4.20000000	        -43.17102882	         10.49244644	         -1.33315490	         -1.10970822	         79.10449653	        -12.16633368	         40.97442903	         85.08726216	        -10.43497555	
          4.21000000	        -43.00945028	         10.48782167	         -1.21148399	         -1.11795955	         78.90941477	        -12.09297069	         41.18844455	         85.01158054	        -10.43860040	
          4.22000000	        -42.84432306	         10.48310851	         -1.09100991	         -1.12663023	         78.70521776	        -12.01910475	         41.41493969	         84.93640539	        -10.43810361	
          4.23000000	        -42.67660188	         10.47837093	         -0.97361022	         -1.13575371	         78.49163915	        -11.94537566	         41.65468447	         84.86196868	        -10.43223656	
          4.24000000	        -42.50720939	         10.47365890	         -0.86095382	         -1.14534899	         78.26861109	        -11.87235291	         41.90814280	         84.78845171	        -10.41997246	
          4.25000000	        -42.33700596	         10.46900873	         -0.75443738	         -1.15541762	         78.03627671	        -11.80051734	         42.17544635	         84.71596505	        -10.40051410	
          4.26000000	        -42.16676656	         10.46444395	         -0.65514248	         -1.16594230	         77.79499183	        -11.73025014	         42.45638519	         84.64453221	        -10.37328721	
